<?xml version="1.0" encoding="UTF-8" standalone="no"?>
<!DOCTYPE svg PUBLIC "-//W3C//DTD SVG 1.1//EN"
 "http://www.w3.org/Graphics/SVG/1.1/DTD/svg11.dtd">
<!-- Generated by graphviz version 12.2.1 (20241206.2353)
 -->
<!-- Title: G Pages: 1 -->
<svg width="1355pt" height="846pt"
 viewBox="0.00 0.00 1354.64 846.45" xmlns="http://www.w3.org/2000/svg" xmlns:xlink="http://www.w3.org/1999/xlink">
<g id="graph0" class="graph" transform="scale(1 1) rotate(0) translate(4 842.45)">
<title>G</title><style>.edge>path:hover{stroke-width:8}</style>
<polygon fill="white" stroke="none" points="-4,4 -4,-842.45 1350.64,-842.45 1350.64,4 -4,4"/>
<!-- dotenv -->
<g id="node1" class="node">
<title>dotenv</title><style>.edge>path:hover{stroke-width:8}</style>
<ellipse fill="#ac4949" stroke="black" cx="1223.13" cy="-127" rx="27.21" ry="18"/>
<text text-anchor="middle" x="1223.13" y="-123.5" font-family="Helvetica,sans-Serif" font-size="10.00" fill="#ffffff">dotenv</text>
</g>
<!-- main_py -->
<g id="node4" class="node">
<title>main_py</title><style>.edge>path:hover{stroke-width:8}</style>
<ellipse fill="#569f56" stroke="black" cx="1223.13" cy="-18" rx="30.37" ry="18"/>
<text text-anchor="middle" x="1223.13" y="-14.5" font-family="Helvetica,sans-Serif" font-size="10.00" fill="#000000">main.py</text>
</g>
<!-- dotenv&#45;&gt;main_py -->
<g id="edge1" class="edge">
<title>dotenv&#45;&gt;main_py</title><style>.edge>path:hover{stroke-width:8}</style>
<path fill="none" stroke="black" d="M1218.75,-108.97C1216.89,-97.89 1216.48,-83.6 1223.13,-73"/>
</g>
<!-- dotenv_ipython -->
<g id="node2" class="node">
<title>dotenv_ipython</title><style>.edge>path:hover{stroke-width:8}</style>
<ellipse fill="#b34c4c" stroke="black" cx="1299.13" cy="-199" rx="47.51" ry="18"/>
<text text-anchor="middle" x="1299.13" y="-195.5" font-family="Helvetica,sans-Serif" font-size="10.00" fill="#ffffff">dotenv.ipython</text>
</g>
<!-- dotenv_ipython&#45;&gt;dotenv -->
<g id="edge2" class="edge">
<title>dotenv_ipython&#45;&gt;dotenv</title><style>.edge>path:hover{stroke-width:8}</style>
<path fill="none" stroke="black" d="M1281.89,-182.12C1271.49,-172.54 1258.09,-160.2 1246.72,-149.73"/>
<polygon fill="#b34c4c" stroke="black" points="1249.34,-147.38 1239.62,-143.18 1244.6,-152.53 1249.34,-147.38"/>
</g>
<!-- dotenv_main -->
<g id="node3" class="node">
<title>dotenv_main</title><style>.edge>path:hover{stroke-width:8}</style>
<ellipse fill="#c24747" stroke="black" cx="1276.13" cy="-284.11" rx="41.19" ry="18"/>
<text text-anchor="middle" x="1276.13" y="-280.61" font-family="Helvetica,sans-Serif" font-size="10.00" fill="#ffffff">dotenv.main</text>
</g>
<!-- dotenv_main&#45;&gt;dotenv -->
<g id="edge3" class="edge">
<title>dotenv_main&#45;&gt;dotenv</title><style>.edge>path:hover{stroke-width:8}</style>
<path fill="none" stroke="black" d="M1265.89,-266.27C1258.35,-253.24 1248.38,-234.51 1242.13,-217 1235.1,-197.29 1230.26,-174.16 1227.22,-156.41"/>
<polygon fill="#c24747" stroke="black" points="1230.69,-155.91 1225.65,-146.59 1223.78,-157.02 1230.69,-155.91"/>
</g>
<!-- dotenv_main&#45;&gt;dotenv_ipython -->
<g id="edge4" class="edge">
<title>dotenv_main&#45;&gt;dotenv_ipython</title><style>.edge>path:hover{stroke-width:8}</style>
<path fill="none" stroke="black" d="M1280.9,-265.89C1283.92,-254.97 1287.9,-240.59 1291.37,-228.05"/>
<polygon fill="#c24747" stroke="black" points="1294.68,-229.23 1293.97,-218.66 1287.93,-227.36 1294.68,-229.23"/>
</g>
<!-- pandas -->
<g id="node5" class="node">
<title>pandas</title><style>.edge>path:hover{stroke-width:8}</style>
<polygon fill="blue" stroke="black" points="1024.13,-145 970.13,-145 970.13,-109 1024.13,-109 1024.13,-145"/>
<text text-anchor="middle" x="997.13" y="-123.5" font-family="Helvetica,sans-Serif" font-size="10.00" fill="white">pandas</text>
</g>
<!-- pandas&#45;&gt;main_py -->
<g id="edge5" class="edge">
<title>pandas&#45;&gt;main_py</title><style>.edge>path:hover{stroke-width:8}</style>
<path fill="none" stroke="black" d="M1024.25,-124.21C1079.57,-119.88 1202.02,-106.62 1223.13,-73"/>
<path fill="none" stroke="black" d="M1223.13,-72C1227.66,-64.8 1228.91,-55.89 1228.67,-47.44"/>
<polygon fill="blue" stroke="black" points="1232.16,-47.14 1227.67,-37.54 1225.19,-47.84 1232.16,-47.14"/>
</g>
<!-- pandas__config -->
<g id="node6" class="node">
<title>pandas__config</title><style>.edge>path:hover{stroke-width:8}</style>
<polygon fill="blue" stroke="black" points="874.13,-766.45 792.13,-766.45 792.13,-730.45 874.13,-730.45 874.13,-766.45"/>
<text text-anchor="middle" x="833.13" y="-744.95" font-family="Helvetica,sans-Serif" font-size="10.00" fill="white">pandas._config</text>
</g>
<!-- pandas__config&#45;&gt;pandas -->
<g id="edge6" class="edge">
<title>pandas__config&#45;&gt;pandas</title><style>.edge>path:hover{stroke-width:8}</style>
<path fill="none" stroke="black" d="M874.33,-744.02C956.16,-734.76 1138.39,-701.5 1221.13,-585.45 1249.43,-545.77 1242.25,-527.1 1245.13,-478.45"/>
</g>
<!-- pandas_core_config_init -->
<g id="node16" class="node">
<title>pandas_core_config_init</title><style>.edge>path:hover{stroke-width:8}</style>
<polygon fill="blue" stroke="black" points="608.26,-306.11 548.01,-306.11 548.01,-262.11 608.26,-262.11 608.26,-306.11"/>
<text text-anchor="middle" x="578.13" y="-292.61" font-family="Helvetica,sans-Serif" font-size="10.00" fill="white">pandas.</text>
<text text-anchor="middle" x="578.13" y="-280.61" font-family="Helvetica,sans-Serif" font-size="10.00" fill="white">core.</text>
<text text-anchor="middle" x="578.13" y="-268.61" font-family="Helvetica,sans-Serif" font-size="10.00" fill="white">config_init</text>
</g>
<!-- pandas__config&#45;&gt;pandas_core_config_init -->
<g id="edge7" class="edge">
<title>pandas__config&#45;&gt;pandas_core_config_init</title><style>.edge>path:hover{stroke-width:8}</style>
<path fill="none" stroke="black" d="M791.85,-744.7C708.53,-736.65 521.37,-705.42 441.13,-585.45 430.26,-569.2 433.91,-559.62 441.13,-541.45 449.26,-521 463.95,-524.41 475.13,-505.45 504.08,-456.38 492.52,-436.05 514.13,-383.34"/>
</g>
<!-- pandas_errors -->
<g id="node21" class="node">
<title>pandas_errors</title><style>.edge>path:hover{stroke-width:8}</style>
<polygon fill="blue" stroke="black" points="870.76,-694.45 795.51,-694.45 795.51,-658.45 870.76,-658.45 870.76,-694.45"/>
<text text-anchor="middle" x="833.13" y="-672.95" font-family="Helvetica,sans-Serif" font-size="10.00" fill="white">pandas.errors</text>
</g>
<!-- pandas__config&#45;&gt;pandas_errors -->
<g id="edge8" class="edge">
<title>pandas__config&#45;&gt;pandas_errors</title><style>.edge>path:hover{stroke-width:8}</style>
<path fill="none" stroke="black" d="M833.13,-730.15C833.13,-722.86 833.13,-714.18 833.13,-705.99"/>
<polygon fill="blue" stroke="black" points="836.63,-706.07 833.13,-696.07 829.63,-706.07 836.63,-706.07"/>
</g>
<!-- pandas__version -->
<g id="node7" class="node">
<title>pandas__version</title><style>.edge>path:hover{stroke-width:8}</style>
<ellipse fill="#4747c2" stroke="black" cx="319.13" cy="-477.45" rx="37.3" ry="22.63"/>
<text text-anchor="middle" x="319.13" y="-479.95" font-family="Helvetica,sans-Serif" font-size="10.00" fill="#ffffff">pandas.</text>
<text text-anchor="middle" x="319.13" y="-467.95" font-family="Helvetica,sans-Serif" font-size="10.00" fill="#ffffff">_version</text>
</g>
<!-- pandas__version&#45;&gt;pandas -->
<g id="edge9" class="edge">
<title>pandas__version&#45;&gt;pandas</title><style>.edge>path:hover{stroke-width:8}</style>
<path fill="none" stroke="black" d="M360.13,-283.11C421.89,-183.63 503.78,-248.98 610.13,-200"/>
<path fill="none" stroke="black" d="M322.13,-381.34C323.21,-335.37 335.88,-324.18 360.13,-285.11"/>
</g>
<!-- pandas_util__print_versions -->
<g id="node32" class="node">
<title>pandas_util__print_versions</title><style>.edge>path:hover{stroke-width:8}</style>
<polygon fill="blue" stroke="black" points="328.13,-306.11 246.13,-306.11 246.13,-262.11 328.13,-262.11 328.13,-306.11"/>
<text text-anchor="middle" x="287.13" y="-292.61" font-family="Helvetica,sans-Serif" font-size="10.00" fill="white">pandas.</text>
<text text-anchor="middle" x="287.13" y="-280.61" font-family="Helvetica,sans-Serif" font-size="10.00" fill="white">util.</text>
<text text-anchor="middle" x="287.13" y="-268.61" font-family="Helvetica,sans-Serif" font-size="10.00" fill="white">_print_versions</text>
</g>
<!-- pandas__version&#45;&gt;pandas_util__print_versions -->
<g id="edge10" class="edge">
<title>pandas__version&#45;&gt;pandas_util__print_versions</title><style>.edge>path:hover{stroke-width:8}</style>
<path fill="none" stroke="black" d="M322.13,-381.34C322.66,-358.76 314.04,-334.89 305.23,-316.57"/>
<polygon fill="#4747c2" stroke="black" points="308.43,-315.14 300.77,-307.83 302.19,-318.32 308.43,-315.14"/>
<path fill="none" stroke="black" d="M319.94,-454.63C320.62,-435.76 321.56,-407.75 322.13,-383.34"/>
</g>
<!-- pandas__version_meson -->
<g id="node8" class="node">
<title>pandas__version_meson</title><style>.edge>path:hover{stroke-width:8}</style>
<ellipse fill="#4747c2" stroke="black" cx="164.13" cy="-477.45" rx="61.7" ry="22.63"/>
<text text-anchor="middle" x="164.13" y="-479.95" font-family="Helvetica,sans-Serif" font-size="10.00" fill="#ffffff">pandas.</text>
<text text-anchor="middle" x="164.13" y="-467.95" font-family="Helvetica,sans-Serif" font-size="10.00" fill="#ffffff">_version_meson</text>
</g>
<!-- pandas__version_meson&#45;&gt;pandas -->
<g id="edge11" class="edge">
<title>pandas__version_meson&#45;&gt;pandas</title><style>.edge>path:hover{stroke-width:8}</style>
<path fill="none" stroke="black" d="M177.4,-455.17C188.61,-436.64 204.64,-408.83 216.13,-383.34"/>
<path fill="none" stroke="black" d="M216.13,-381.34C233.71,-342.35 182.8,-311.9 216.13,-285.11"/>
</g>
<!-- pandas__version_meson&#45;&gt;pandas_util__print_versions -->
<g id="edge12" class="edge">
<title>pandas__version_meson&#45;&gt;pandas_util__print_versions</title><style>.edge>path:hover{stroke-width:8}</style>
<path fill="none" stroke="black" d="M216.13,-381.34C227.13,-356.94 245.06,-332.72 260.14,-314.67"/>
<polygon fill="#4747c2" stroke="black" points="262.45,-317.36 266.29,-307.49 257.13,-312.81 262.45,-317.36"/>
</g>
<!-- pandas_api -->
<g id="node9" class="node">
<title>pandas_api</title><style>.edge>path:hover{stroke-width:8}</style>
<polygon fill="blue" stroke="black" points="934.76,-217 871.51,-217 871.51,-181 934.76,-181 934.76,-217"/>
<text text-anchor="middle" x="903.13" y="-195.5" font-family="Helvetica,sans-Serif" font-size="10.00" fill="white">pandas.api</text>
</g>
<!-- pandas_api&#45;&gt;pandas -->
<g id="edge13" class="edge">
<title>pandas_api&#45;&gt;pandas</title><style>.edge>path:hover{stroke-width:8}</style>
<path fill="none" stroke="black" d="M926.37,-180.7C938.01,-172.03 952.28,-161.4 964.95,-151.96"/>
<polygon fill="blue" stroke="black" points="966.69,-155.03 972.62,-146.25 962.51,-149.42 966.69,-155.03"/>
</g>
<!-- pandas_arrays -->
<g id="node10" class="node">
<title>pandas_arrays</title><style>.edge>path:hover{stroke-width:8}</style>
<polygon fill="blue" stroke="black" points="112.88,-694.45 35.38,-694.45 35.38,-658.45 112.88,-658.45 112.88,-694.45"/>
<text text-anchor="middle" x="74.13" y="-672.95" font-family="Helvetica,sans-Serif" font-size="10.00" fill="white">pandas.arrays</text>
</g>
<!-- pandas_arrays&#45;&gt;pandas -->
<g id="edge14" class="edge">
<title>pandas_arrays&#45;&gt;pandas</title><style>.edge>path:hover{stroke-width:8}</style>
<path fill="none" stroke="black" d="M71.81,-658.42C70.93,-647.86 70.83,-634.14 74.13,-622.45"/>
</g>
<!-- pandas_compat -->
<g id="node11" class="node">
<title>pandas_compat</title><style>.edge>path:hover{stroke-width:8}</style>
<polygon fill="blue" stroke="black" points="356.51,-694.45 273.76,-694.45 273.76,-658.45 356.51,-658.45 356.51,-694.45"/>
<text text-anchor="middle" x="315.13" y="-672.95" font-family="Helvetica,sans-Serif" font-size="10.00" fill="white">pandas.compat</text>
</g>
<!-- pandas_compat&#45;&gt;pandas -->
<g id="edge15" class="edge">
<title>pandas_compat&#45;&gt;pandas</title><style>.edge>path:hover{stroke-width:8}</style>
<path fill="none" stroke="black" d="M384.13,-562.45C389.97,-525.58 392.32,-514.87 384.13,-478.45"/>
<path fill="none" stroke="black" d="M346.13,-621.45C364.83,-597.42 379.37,-594.52 384.13,-564.45"/>
</g>
<!-- pandas_core_dtypes_dtypes -->
<g id="node18" class="node">
<title>pandas_core_dtypes_dtypes</title><style>.edge>path:hover{stroke-width:8}</style>
<polygon fill="blue" stroke="black" points="990.13,-505.45 936.13,-505.45 936.13,-449.45 990.13,-449.45 990.13,-505.45"/>
<text text-anchor="middle" x="963.13" y="-491.95" font-family="Helvetica,sans-Serif" font-size="10.00" fill="white">pandas.</text>
<text text-anchor="middle" x="963.13" y="-479.95" font-family="Helvetica,sans-Serif" font-size="10.00" fill="white">core.</text>
<text text-anchor="middle" x="963.13" y="-467.95" font-family="Helvetica,sans-Serif" font-size="10.00" fill="white">dtypes.</text>
<text text-anchor="middle" x="963.13" y="-455.95" font-family="Helvetica,sans-Serif" font-size="10.00" fill="white">dtypes</text>
</g>
<!-- pandas_compat&#45;&gt;pandas_core_dtypes_dtypes -->
<g id="edge16" class="edge">
<title>pandas_compat&#45;&gt;pandas_core_dtypes_dtypes</title><style>.edge>path:hover{stroke-width:8}</style>
<path fill="none" stroke="black" d="M630.13,-562.45C757.21,-525.92 799.71,-555.42 922.13,-505.45 923.28,-504.98 924.42,-504.48 925.57,-503.95"/>
<polygon fill="blue" stroke="black" points="927.18,-507.06 934.37,-499.28 923.9,-500.88 927.18,-507.06"/>
<path fill="none" stroke="black" d="M346.13,-621.45C381.59,-573.76 558.56,-613.17 611.13,-585.45 622.27,-579.58 618.04,-567.93 630.13,-564.45"/>
</g>
<!-- pandas_compat&#45;&gt;pandas_util__print_versions -->
<g id="edge17" class="edge">
<title>pandas_compat&#45;&gt;pandas_util__print_versions</title><style>.edge>path:hover{stroke-width:8}</style>
<path fill="none" stroke="black" d="M346.13,-621.45C363.12,-598.6 309.43,-608.8 293.13,-585.45 272.15,-555.4 277.61,-541.83 273.13,-505.45 264.96,-439.03 274.44,-360.73 281.3,-317.64"/>
<polygon fill="blue" stroke="black" points="284.73,-318.39 282.91,-307.95 277.82,-317.25 284.73,-318.39"/>
<path fill="none" stroke="black" d="M323.82,-658.01C329.52,-647.3 337.49,-633.56 346.13,-622.45"/>
</g>
<!-- pandas_util__tester -->
<g id="node33" class="node">
<title>pandas_util__tester</title><style>.edge>path:hover{stroke-width:8}</style>
<polygon fill="blue" stroke="black" points="356.13,-585.45 302.13,-585.45 302.13,-541.45 356.13,-541.45 356.13,-585.45"/>
<text text-anchor="middle" x="329.13" y="-571.95" font-family="Helvetica,sans-Serif" font-size="10.00" fill="white">pandas.</text>
<text text-anchor="middle" x="329.13" y="-559.95" font-family="Helvetica,sans-Serif" font-size="10.00" fill="white">util.</text>
<text text-anchor="middle" x="329.13" y="-547.95" font-family="Helvetica,sans-Serif" font-size="10.00" fill="white">_tester</text>
</g>
<!-- pandas_compat&#45;&gt;pandas_util__tester -->
<g id="edge18" class="edge">
<title>pandas_compat&#45;&gt;pandas_util__tester</title><style>.edge>path:hover{stroke-width:8}</style>
<path fill="none" stroke="black" d="M346.13,-621.45C351.61,-614.09 351.23,-604.97 348.41,-596.2"/>
<polygon fill="blue" stroke="black" points="351.72,-595.03 344.57,-587.21 345.28,-597.78 351.72,-595.03"/>
</g>
<!-- pandas_core -->
<g id="node12" class="node">
<title>pandas_core</title><style>.edge>path:hover{stroke-width:8}</style>
<ellipse fill="#1010f9" stroke="black" cx="195.13" cy="-820.45" rx="41.64" ry="18"/>
<text text-anchor="middle" x="195.13" y="-816.95" font-family="Helvetica,sans-Serif" font-size="10.00" fill="#ffffff">pandas.core</text>
</g>
<!-- pandas_core&#45;&gt;pandas -->
<g id="edge19" class="edge">
<title>pandas_core&#45;&gt;pandas</title><style>.edge>path:hover{stroke-width:8}</style>
<path fill="none" stroke="black" d="M216.13,-283.11C228.85,-272.89 223.23,-261.55 237.13,-253 379.75,-165.27 458.04,-270.04 610.13,-200"/>
<path fill="none" stroke="black" d="M74.13,-621.45C95.06,-547.44 64.87,-520.98 93.13,-449.45 126.66,-364.6 145.02,-342.26 216.13,-285.11"/>
<path fill="none" stroke="black" d="M610.13,-198C729.1,-143.22 887.06,-131.23 958.79,-128.66"/>
<polygon fill="#1010f9" stroke="black" points="958.55,-132.17 968.43,-128.36 958.33,-125.18 958.55,-132.17"/>
<path fill="none" stroke="black" d="M7.13,-747.45C-8.05,-709.96 4.35,-692.53 26.13,-658.45 40.5,-635.98 65.24,-647.59 74.13,-622.45"/>
<path fill="none" stroke="black" d="M153.23,-819.84C104.51,-817.62 28.07,-805.02 7.13,-749.45"/>
</g>
<!-- pandas_core&#45;&gt;pandas_arrays -->
<g id="edge20" class="edge">
<title>pandas_core&#45;&gt;pandas_arrays</title><style>.edge>path:hover{stroke-width:8}</style>
<path fill="none" stroke="black" d="M7.13,-747.45C-0.17,-729.43 12.79,-713.41 29.19,-701.26"/>
<polygon fill="#1010f9" stroke="black" points="30.98,-704.27 37.3,-695.77 27.06,-698.48 30.98,-704.27"/>
</g>
<!-- pandas_util -->
<g id="node31" class="node">
<title>pandas_util</title><style>.edge>path:hover{stroke-width:8}</style>
<polygon fill="blue" stroke="black" points="321.76,-766.45 258.51,-766.45 258.51,-730.45 321.76,-730.45 321.76,-766.45"/>
<text text-anchor="middle" x="290.13" y="-744.95" font-family="Helvetica,sans-Serif" font-size="10.00" fill="white">pandas.util</text>
</g>
<!-- pandas_core&#45;&gt;pandas_util -->
<g id="edge21" class="edge">
<title>pandas_core&#45;&gt;pandas_util</title><style>.edge>path:hover{stroke-width:8}</style>
<path fill="none" stroke="black" d="M215.28,-804.61C227.61,-795.52 243.67,-783.68 257.76,-773.31"/>
<polygon fill="#1010f9" stroke="black" points="259.47,-776.39 265.45,-767.64 255.32,-770.76 259.47,-776.39"/>
</g>
<!-- pandas_core_api -->
<g id="node13" class="node">
<title>pandas_core_api</title><style>.edge>path:hover{stroke-width:8}</style>
<polygon fill="blue" stroke="black" points="724.13,-306.11 670.13,-306.11 670.13,-262.11 724.13,-262.11 724.13,-306.11"/>
<text text-anchor="middle" x="697.13" y="-292.61" font-family="Helvetica,sans-Serif" font-size="10.00" fill="white">pandas.</text>
<text text-anchor="middle" x="697.13" y="-280.61" font-family="Helvetica,sans-Serif" font-size="10.00" fill="white">core.</text>
<text text-anchor="middle" x="697.13" y="-268.61" font-family="Helvetica,sans-Serif" font-size="10.00" fill="white">api</text>
</g>
<!-- pandas_core_api&#45;&gt;pandas -->
<g id="edge22" class="edge">
<title>pandas_core_api&#45;&gt;pandas</title><style>.edge>path:hover{stroke-width:8}</style>
<path fill="none" stroke="black" d="M670.53,-261.7C642.12,-238.32 602.16,-203.67 610.13,-200"/>
</g>
<!-- pandas_core_computation -->
<g id="node14" class="node">
<title>pandas_core_computation</title><style>.edge>path:hover{stroke-width:8}</style>
<ellipse fill="#3b3bce" stroke="black" cx="437.13" cy="-382.34" rx="48.97" ry="31.11"/>
<text text-anchor="middle" x="437.13" y="-390.84" font-family="Helvetica,sans-Serif" font-size="10.00" fill="#ffffff">pandas.</text>
<text text-anchor="middle" x="437.13" y="-378.84" font-family="Helvetica,sans-Serif" font-size="10.00" fill="#ffffff">core.</text>
<text text-anchor="middle" x="437.13" y="-366.84" font-family="Helvetica,sans-Serif" font-size="10.00" fill="#ffffff">computation</text>
</g>
<!-- pandas_core_computation&#45;&gt;pandas -->
<g id="edge23" class="edge">
<title>pandas_core_computation&#45;&gt;pandas</title><style>.edge>path:hover{stroke-width:8}</style>
<path fill="none" stroke="black" d="M401.38,-360.65C373.74,-341.86 342.87,-312.93 360.13,-285.11"/>
</g>
<!-- pandas_core_computation&#45;&gt;pandas_core_config_init -->
<g id="edge24" class="edge">
<title>pandas_core_computation&#45;&gt;pandas_core_config_init</title><style>.edge>path:hover{stroke-width:8}</style>
<path fill="none" stroke="black" d="M469.83,-359.02C490.24,-345.09 516.65,-327.07 538.28,-312.31"/>
<polygon fill="#3b3bce" stroke="black" points="540,-315.37 546.29,-306.85 536.05,-309.59 540,-315.37"/>
</g>
<!-- pandas_core_computation_api -->
<g id="node15" class="node">
<title>pandas_core_computation_api</title><style>.edge>path:hover{stroke-width:8}</style>
<polygon fill="blue" stroke="black" points="1063.26,-410.34 991.01,-410.34 991.01,-354.34 1063.26,-354.34 1063.26,-410.34"/>
<text text-anchor="middle" x="1027.13" y="-396.84" font-family="Helvetica,sans-Serif" font-size="10.00" fill="white">pandas.</text>
<text text-anchor="middle" x="1027.13" y="-384.84" font-family="Helvetica,sans-Serif" font-size="10.00" fill="white">core.</text>
<text text-anchor="middle" x="1027.13" y="-372.84" font-family="Helvetica,sans-Serif" font-size="10.00" fill="white">computation.</text>
<text text-anchor="middle" x="1027.13" y="-360.84" font-family="Helvetica,sans-Serif" font-size="10.00" fill="white">api</text>
</g>
<!-- pandas_core_computation_api&#45;&gt;pandas -->
<g id="edge25" class="edge">
<title>pandas_core_computation_api&#45;&gt;pandas</title><style>.edge>path:hover{stroke-width:8}</style>
<path fill="none" stroke="black" d="M1029.5,-354.18C1030.61,-334.8 1030.97,-308.18 1027.13,-285.11"/>
</g>
<!-- pandas_core_config_init&#45;&gt;pandas -->
<g id="edge26" class="edge">
<title>pandas_core_config_init&#45;&gt;pandas</title><style>.edge>path:hover{stroke-width:8}</style>
<path fill="none" stroke="black" d="M578.7,-261.96C580.61,-240.98 587.38,-210.48 610.13,-200"/>
</g>
<!-- pandas_core_dtypes -->
<g id="node17" class="node">
<title>pandas_core_dtypes</title><style>.edge>path:hover{stroke-width:8}</style>
<ellipse fill="#2f2fdb" stroke="black" cx="578.13" cy="-382.34" rx="35.71" ry="31.11"/>
<text text-anchor="middle" x="578.13" y="-390.84" font-family="Helvetica,sans-Serif" font-size="10.00" fill="#ffffff">pandas.</text>
<text text-anchor="middle" x="578.13" y="-378.84" font-family="Helvetica,sans-Serif" font-size="10.00" fill="#ffffff">core.</text>
<text text-anchor="middle" x="578.13" y="-366.84" font-family="Helvetica,sans-Serif" font-size="10.00" fill="#ffffff">dtypes</text>
</g>
<!-- pandas_core_dtypes&#45;&gt;pandas -->
<g id="edge27" class="edge">
<title>pandas_core_dtypes&#45;&gt;pandas</title><style>.edge>path:hover{stroke-width:8}</style>
<path fill="none" stroke="black" d="M603.42,-359.9C621.59,-341.95 642.79,-314.6 642.13,-285.11"/>
<path fill="none" stroke="black" d="M642.13,-283.11C641.25,-243.54 574.18,-216.56 610.13,-200"/>
</g>
<!-- pandas_core_dtypes&#45;&gt;pandas_core_api -->
<g id="edge28" class="edge">
<title>pandas_core_dtypes&#45;&gt;pandas_core_api</title><style>.edge>path:hover{stroke-width:8}</style>
<path fill="none" stroke="black" d="M603.95,-360.46C620.99,-346.68 643.52,-328.47 662.15,-313.4"/>
<polygon fill="#2f2fdb" stroke="black" points="664.2,-316.24 669.77,-307.24 659.8,-310.8 664.2,-316.24"/>
</g>
<!-- pandas_core_dtypes&#45;&gt;pandas_core_config_init -->
<g id="edge29" class="edge">
<title>pandas_core_dtypes&#45;&gt;pandas_core_config_init</title><style>.edge>path:hover{stroke-width:8}</style>
<path fill="none" stroke="black" d="M578.13,-350.89C578.13,-340.41 578.13,-328.63 578.13,-317.97"/>
<polygon fill="#2f2fdb" stroke="black" points="581.63,-318.04 578.13,-308.04 574.63,-318.04 581.63,-318.04"/>
</g>
<!-- pandas_core_dtypes_dtypes&#45;&gt;pandas -->
<g id="edge30" class="edge">
<title>pandas_core_dtypes_dtypes&#45;&gt;pandas</title><style>.edge>path:hover{stroke-width:8}</style>
<path fill="none" stroke="black" d="M1027.13,-283.11C1024.53,-267.5 1017.5,-265.76 1008.13,-253 989.84,-228.09 956.37,-230.15 963.13,-200"/>
<path fill="none" stroke="black" d="M963.6,-449.09C964.88,-423.04 969.07,-383.18 982.13,-351.23 995.58,-318.32 1032.97,-320.17 1027.13,-285.11"/>
</g>
<!-- pandas_core_dtypes_dtypes&#45;&gt;pandas_core_api -->
<g id="edge31" class="edge">
<title>pandas_core_dtypes_dtypes&#45;&gt;pandas_core_api</title><style>.edge>path:hover{stroke-width:8}</style>
<path fill="none" stroke="black" d="M935.7,-456.95C893.24,-426.73 809.12,-366.73 738.13,-315.23 736.61,-314.12 735.05,-312.99 733.49,-311.85"/>
<polygon fill="blue" stroke="black" points="735.81,-309.21 725.67,-306.14 731.68,-314.86 735.81,-309.21"/>
</g>
<!-- pandas_core_reshape -->
<g id="node19" class="node">
<title>pandas_core_reshape</title><style>.edge>path:hover{stroke-width:8}</style>
<ellipse fill="#4747c2" stroke="black" cx="963.13" cy="-284.11" rx="35.71" ry="31.11"/>
<text text-anchor="middle" x="963.13" y="-292.61" font-family="Helvetica,sans-Serif" font-size="10.00" fill="#ffffff">pandas.</text>
<text text-anchor="middle" x="963.13" y="-280.61" font-family="Helvetica,sans-Serif" font-size="10.00" fill="#ffffff">core.</text>
<text text-anchor="middle" x="963.13" y="-268.61" font-family="Helvetica,sans-Serif" font-size="10.00" fill="#ffffff">reshape</text>
</g>
<!-- pandas_core_reshape&#45;&gt;pandas -->
<g id="edge32" class="edge">
<title>pandas_core_reshape&#45;&gt;pandas</title><style>.edge>path:hover{stroke-width:8}</style>
<path fill="none" stroke="black" d="M959.97,-252.76C959.1,-236.86 959.28,-217.18 963.13,-200"/>
</g>
<!-- pandas_core_reshape_api -->
<g id="node20" class="node">
<title>pandas_core_reshape_api</title><style>.edge>path:hover{stroke-width:8}</style>
<polygon fill="blue" stroke="black" points="1135.13,-410.34 1081.13,-410.34 1081.13,-354.34 1135.13,-354.34 1135.13,-410.34"/>
<text text-anchor="middle" x="1108.13" y="-396.84" font-family="Helvetica,sans-Serif" font-size="10.00" fill="white">pandas.</text>
<text text-anchor="middle" x="1108.13" y="-384.84" font-family="Helvetica,sans-Serif" font-size="10.00" fill="white">core.</text>
<text text-anchor="middle" x="1108.13" y="-372.84" font-family="Helvetica,sans-Serif" font-size="10.00" fill="white">reshape.</text>
<text text-anchor="middle" x="1108.13" y="-360.84" font-family="Helvetica,sans-Serif" font-size="10.00" fill="white">api</text>
</g>
<!-- pandas_core_reshape_api&#45;&gt;pandas -->
<g id="edge33" class="edge">
<title>pandas_core_reshape_api&#45;&gt;pandas</title><style>.edge>path:hover{stroke-width:8}</style>
<path fill="none" stroke="black" d="M1185.13,-283.11C1187.36,-205.95 1090.94,-159.99 1035.34,-139.95"/>
<polygon fill="blue" stroke="black" points="1036.5,-136.65 1025.9,-136.67 1034.2,-143.26 1036.5,-136.65"/>
<path fill="none" stroke="black" d="M1135.39,-356.66C1158.96,-333.99 1188.74,-301.52 1185.13,-285.11"/>
</g>
<!-- pandas_errors&#45;&gt;pandas -->
<g id="edge34" class="edge">
<title>pandas_errors&#45;&gt;pandas</title><style>.edge>path:hover{stroke-width:8}</style>
<path fill="none" stroke="black" d="M1245.13,-476.45C1251.24,-420.49 1245.59,-404.05 1226.13,-351.23 1214.18,-318.78 1192.55,-318.88 1185.13,-285.11"/>
<path fill="none" stroke="black" d="M1207.13,-562.45C1205.56,-521.51 1242.71,-519.35 1245.13,-478.45"/>
</g>
<!-- pandas_errors&#45;&gt;pandas_core_dtypes_dtypes -->
<g id="edge35" class="edge">
<title>pandas_errors&#45;&gt;pandas_core_dtypes_dtypes</title><style>.edge>path:hover{stroke-width:8}</style>
<path fill="none" stroke="black" d="M871.16,-671.9C972.06,-661.57 1236.94,-628.18 1207.13,-564.45"/>
<path fill="none" stroke="black" d="M1207.13,-562.45C1205.48,-519.6 1069.87,-493.87 1001.56,-483.61"/>
<polygon fill="blue" stroke="black" points="1002.32,-480.18 991.92,-482.2 1001.31,-487.11 1002.32,-480.18"/>
</g>
<!-- pandas_io -->
<g id="node22" class="node">
<title>pandas_io</title><style>.edge>path:hover{stroke-width:8}</style>
<polygon fill="blue" stroke="black" points="580.13,-495.45 522.13,-495.45 522.13,-459.45 580.13,-459.45 580.13,-495.45"/>
<text text-anchor="middle" x="551.13" y="-473.95" font-family="Helvetica,sans-Serif" font-size="10.00" fill="white">pandas.io</text>
</g>
<!-- pandas_io&#45;&gt;pandas -->
<g id="edge36" class="edge">
<title>pandas_io&#45;&gt;pandas</title><style>.edge>path:hover{stroke-width:8}</style>
<path fill="none" stroke="black" d="M574.42,-458.95C589.33,-447.08 608.56,-430.49 623.13,-413.45 633.42,-401.42 638.4,-398.72 642.13,-383.34"/>
<path fill="none" stroke="black" d="M642.13,-381.34C652.21,-339.78 643.09,-327.87 642.13,-285.11"/>
</g>
<!-- pandas_io&#45;&gt;pandas_core_api -->
<g id="edge37" class="edge">
<title>pandas_io&#45;&gt;pandas_core_api</title><style>.edge>path:hover{stroke-width:8}</style>
<path fill="none" stroke="black" d="M574.54,-459.13C579.3,-455.81 584.32,-452.44 589.13,-449.45 637.27,-419.58 680.28,-437.11 698.13,-383.34"/>
<path fill="none" stroke="black" d="M698.13,-381.34C704.9,-360.95 704.62,-336.77 702.66,-317.75"/>
<polygon fill="blue" stroke="black" points="706.14,-317.35 701.42,-307.87 699.19,-318.23 706.14,-317.35"/>
</g>
<!-- pandas_io&#45;&gt;pandas_core_config_init -->
<g id="edge38" class="edge">
<title>pandas_io&#45;&gt;pandas_core_config_init</title><style>.edge>path:hover{stroke-width:8}</style>
<path fill="none" stroke="black" d="M536.04,-459.24C521.54,-440.52 503.31,-409.73 514.13,-383.34"/>
</g>
<!-- pandas_io_api -->
<g id="node23" class="node">
<title>pandas_io_api</title><style>.edge>path:hover{stroke-width:8}</style>
<polygon fill="blue" stroke="black" points="672.01,-495.45 598.26,-495.45 598.26,-459.45 672.01,-459.45 672.01,-495.45"/>
<text text-anchor="middle" x="635.13" y="-473.95" font-family="Helvetica,sans-Serif" font-size="10.00" fill="white">pandas.io.api</text>
</g>
<!-- pandas_io_api&#45;&gt;pandas -->
<g id="edge39" class="edge">
<title>pandas_io_api&#45;&gt;pandas</title><style>.edge>path:hover{stroke-width:8}</style>
<path fill="none" stroke="black" d="M634.77,-459.03C634.76,-440.12 635.87,-409.18 642.13,-383.34"/>
</g>
<!-- pandas_io_json -->
<g id="node24" class="node">
<title>pandas_io_json</title><style>.edge>path:hover{stroke-width:8}</style>
<polygon fill="blue" stroke="black" points="529.63,-581.45 450.63,-581.45 450.63,-545.45 529.63,-545.45 529.63,-581.45"/>
<text text-anchor="middle" x="490.13" y="-559.95" font-family="Helvetica,sans-Serif" font-size="10.00" fill="white">pandas.io.json</text>
</g>
<!-- pandas_io_json&#45;&gt;pandas -->
<g id="edge40" class="edge">
<title>pandas_io_json&#45;&gt;pandas</title><style>.edge>path:hover{stroke-width:8}</style>
<path fill="none" stroke="black" d="M450.14,-546.67C423.26,-533.27 391.45,-510.98 384.13,-478.45"/>
</g>
<!-- pandas_io_json&#45;&gt;pandas_io -->
<g id="edge41" class="edge">
<title>pandas_io_json&#45;&gt;pandas_io</title><style>.edge>path:hover{stroke-width:8}</style>
<path fill="none" stroke="black" d="M502.77,-545.05C511.2,-533.45 522.43,-517.98 531.95,-504.87"/>
<polygon fill="blue" stroke="black" points="534.58,-507.21 537.62,-497.06 528.91,-503.09 534.58,-507.21"/>
</g>
<!-- pandas_io_json&#45;&gt;pandas_io_api -->
<g id="edge42" class="edge">
<title>pandas_io_json&#45;&gt;pandas_io_api</title><style>.edge>path:hover{stroke-width:8}</style>
<path fill="none" stroke="black" d="M520.5,-545.05C540.11,-533.8 566.16,-518.81 589.13,-505.45 591.28,-504.2 593.48,-502.92 595.7,-501.62"/>
<polygon fill="blue" stroke="black" points="597.29,-504.75 604.15,-496.68 593.75,-498.71 597.29,-504.75"/>
</g>
<!-- pandas_io_json__normalize -->
<g id="node25" class="node">
<title>pandas_io_json__normalize</title><style>.edge>path:hover{stroke-width:8}</style>
<polygon fill="blue" stroke="black" points="1216.76,-410.34 1153.51,-410.34 1153.51,-354.34 1216.76,-354.34 1216.76,-410.34"/>
<text text-anchor="middle" x="1185.13" y="-396.84" font-family="Helvetica,sans-Serif" font-size="10.00" fill="white">pandas.</text>
<text text-anchor="middle" x="1185.13" y="-384.84" font-family="Helvetica,sans-Serif" font-size="10.00" fill="white">io.</text>
<text text-anchor="middle" x="1185.13" y="-372.84" font-family="Helvetica,sans-Serif" font-size="10.00" fill="white">json.</text>
<text text-anchor="middle" x="1185.13" y="-360.84" font-family="Helvetica,sans-Serif" font-size="10.00" fill="white">_normalize</text>
</g>
<!-- pandas_io_json__normalize&#45;&gt;pandas -->
<g id="edge43" class="edge">
<title>pandas_io_json__normalize&#45;&gt;pandas</title><style>.edge>path:hover{stroke-width:8}</style>
<path fill="none" stroke="black" d="M1188.22,-354.04C1189.68,-334.59 1190.15,-307.96 1185.13,-285.11"/>
</g>
<!-- pandas_plotting -->
<g id="node26" class="node">
<title>pandas_plotting</title><style>.edge>path:hover{stroke-width:8}</style>
<polygon fill="blue" stroke="black" points="466.13,-495.45 412.13,-495.45 412.13,-459.45 466.13,-459.45 466.13,-495.45"/>
<text text-anchor="middle" x="439.13" y="-479.95" font-family="Helvetica,sans-Serif" font-size="10.00" fill="white">pandas.</text>
<text text-anchor="middle" x="439.13" y="-467.95" font-family="Helvetica,sans-Serif" font-size="10.00" fill="white">plotting</text>
</g>
<!-- pandas_plotting&#45;&gt;pandas -->
<g id="edge44" class="edge">
<title>pandas_plotting&#45;&gt;pandas</title><style>.edge>path:hover{stroke-width:8}</style>
<path fill="none" stroke="black" d="M415.32,-458.96C395.11,-442.25 368.15,-414.99 360.13,-383.34"/>
</g>
<!-- pandas_plotting&#45;&gt;pandas_core_config_init -->
<g id="edge45" class="edge">
<title>pandas_plotting&#45;&gt;pandas_core_config_init</title><style>.edge>path:hover{stroke-width:8}</style>
<path fill="none" stroke="black" d="M458.56,-458.97C476.36,-441.68 501.77,-413.49 514.13,-383.34"/>
<path fill="none" stroke="black" d="M514.13,-381.34C523.92,-357.47 540.02,-333.3 553.62,-315.16"/>
<polygon fill="blue" stroke="black" points="556.23,-317.51 559.54,-307.45 550.67,-313.25 556.23,-317.51"/>
</g>
<!-- pandas_testing -->
<g id="node27" class="node">
<title>pandas_testing</title><style>.edge>path:hover{stroke-width:8}</style>
<polygon fill="blue" stroke="black" points="1071.01,-217 991.26,-217 991.26,-181 1071.01,-181 1071.01,-217"/>
<text text-anchor="middle" x="1031.13" y="-195.5" font-family="Helvetica,sans-Serif" font-size="10.00" fill="white">pandas.testing</text>
</g>
<!-- pandas_testing&#45;&gt;pandas -->
<g id="edge46" class="edge">
<title>pandas_testing&#45;&gt;pandas</title><style>.edge>path:hover{stroke-width:8}</style>
<path fill="none" stroke="black" d="M1022.73,-180.7C1019.02,-173.07 1014.58,-163.92 1010.44,-155.4"/>
<polygon fill="blue" stroke="black" points="1013.62,-153.93 1006.1,-146.47 1007.32,-156.99 1013.62,-153.93"/>
</g>
<!-- pandas_tseries -->
<g id="node28" class="node">
<title>pandas_tseries</title><style>.edge>path:hover{stroke-width:8}</style>
<polygon fill="blue" stroke="black" points="808.01,-495.45 728.26,-495.45 728.26,-459.45 808.01,-459.45 808.01,-495.45"/>
<text text-anchor="middle" x="768.13" y="-473.95" font-family="Helvetica,sans-Serif" font-size="10.00" fill="white">pandas.tseries</text>
</g>
<!-- pandas_tseries&#45;&gt;pandas -->
<g id="edge47" class="edge">
<title>pandas_tseries&#45;&gt;pandas</title><style>.edge>path:hover{stroke-width:8}</style>
<path fill="none" stroke="black" d="M752.13,-283.11C743.08,-270.13 745.16,-263.28 733.13,-253 687.89,-214.32 556.06,-224.9 610.13,-200"/>
<path fill="none" stroke="black" d="M736.13,-381.34C726.65,-339.03 776.94,-320.67 752.13,-285.11"/>
</g>
<!-- pandas_tseries&#45;&gt;pandas_core_api -->
<g id="edge48" class="edge">
<title>pandas_tseries&#45;&gt;pandas_core_api</title><style>.edge>path:hover{stroke-width:8}</style>
<path fill="none" stroke="black" d="M760.94,-459.28C753.53,-440.84 742.23,-410.53 736.13,-383.34"/>
<path fill="none" stroke="black" d="M736.13,-381.34C731.11,-358.95 721.44,-335.03 712.99,-316.64"/>
<polygon fill="blue" stroke="black" points="716.15,-315.15 708.71,-307.61 709.82,-318.14 716.15,-315.15"/>
</g>
<!-- pandas_tseries_api -->
<g id="node29" class="node">
<title>pandas_tseries_api</title><style>.edge>path:hover{stroke-width:8}</style>
<polygon fill="blue" stroke="black" points="880.13,-499.45 826.13,-499.45 826.13,-455.45 880.13,-455.45 880.13,-499.45"/>
<text text-anchor="middle" x="853.13" y="-485.95" font-family="Helvetica,sans-Serif" font-size="10.00" fill="white">pandas.</text>
<text text-anchor="middle" x="853.13" y="-473.95" font-family="Helvetica,sans-Serif" font-size="10.00" fill="white">tseries.</text>
<text text-anchor="middle" x="853.13" y="-461.95" font-family="Helvetica,sans-Serif" font-size="10.00" fill="white">api</text>
</g>
<!-- pandas_tseries_api&#45;&gt;pandas -->
<g id="edge49" class="edge">
<title>pandas_tseries_api&#45;&gt;pandas</title><style>.edge>path:hover{stroke-width:8}</style>
<path fill="none" stroke="black" d="M842.68,-455.16C824.99,-419.47 787.59,-345.53 752.13,-285.11"/>
</g>
<!-- pandas_tseries_offsets -->
<g id="node30" class="node">
<title>pandas_tseries_offsets</title><style>.edge>path:hover{stroke-width:8}</style>
<polygon fill="blue" stroke="black" points="602.13,-585.45 548.13,-585.45 548.13,-541.45 602.13,-541.45 602.13,-585.45"/>
<text text-anchor="middle" x="575.13" y="-571.95" font-family="Helvetica,sans-Serif" font-size="10.00" fill="white">pandas.</text>
<text text-anchor="middle" x="575.13" y="-559.95" font-family="Helvetica,sans-Serif" font-size="10.00" fill="white">tseries.</text>
<text text-anchor="middle" x="575.13" y="-547.95" font-family="Helvetica,sans-Serif" font-size="10.00" fill="white">offsets</text>
</g>
<!-- pandas_tseries_offsets&#45;&gt;pandas -->
<g id="edge50" class="edge">
<title>pandas_tseries_offsets&#45;&gt;pandas</title><style>.edge>path:hover{stroke-width:8}</style>
<path fill="none" stroke="black" d="M602.38,-546.88C606.87,-544.79 611.55,-542.88 616.13,-541.45 674.55,-523.24 846.23,-549.08 889.13,-505.45 968.32,-424.93 873.2,-356.62 918.13,-253 930.43,-224.65 956.37,-230.15 963.13,-200"/>
<path fill="none" stroke="black" d="M963.13,-198C966.11,-182.99 973.11,-167.55 979.99,-155.01"/>
<polygon fill="blue" stroke="black" points="982.91,-156.95 984.89,-146.54 976.85,-153.44 982.91,-156.95"/>
</g>
<!-- pandas_tseries_offsets&#45;&gt;pandas_core_api -->
<g id="edge51" class="edge">
<title>pandas_tseries_offsets&#45;&gt;pandas_core_api</title><style>.edge>path:hover{stroke-width:8}</style>
<path fill="none" stroke="black" d="M602.55,-548.09C633.54,-531.81 679.86,-507.27 681.13,-505.45 712.43,-460.47 680.87,-435.34 698.13,-383.34"/>
</g>
<!-- pandas_tseries_offsets&#45;&gt;pandas_tseries -->
<g id="edge52" class="edge">
<title>pandas_tseries_offsets&#45;&gt;pandas_tseries</title><style>.edge>path:hover{stroke-width:8}</style>
<path fill="none" stroke="black" d="M602.26,-547.98C606.84,-545.7 611.59,-543.44 616.13,-541.45 658.64,-522.84 671.54,-523.86 714.13,-505.45 717.5,-504 720.96,-502.43 724.41,-500.82"/>
<polygon fill="blue" stroke="black" points="725.83,-504.02 733.34,-496.54 722.81,-497.71 725.83,-504.02"/>
</g>
<!-- pandas_tseries_offsets&#45;&gt;pandas_tseries_api -->
<g id="edge53" class="edge">
<title>pandas_tseries_offsets&#45;&gt;pandas_tseries_api</title><style>.edge>path:hover{stroke-width:8}</style>
<path fill="none" stroke="black" d="M602.44,-547.07C606.92,-544.95 611.59,-542.98 616.13,-541.45 702.13,-512.45 733.91,-541.66 817.13,-505.45 817.36,-505.35 817.58,-505.25 817.8,-505.15"/>
<polygon fill="blue" stroke="black" points="819.26,-508.34 826.35,-500.46 815.9,-502.21 819.26,-508.34"/>
</g>
<!-- pandas_util&#45;&gt;pandas -->
<g id="edge54" class="edge">
<title>pandas_util&#45;&gt;pandas</title><style>.edge>path:hover{stroke-width:8}</style>
<path fill="none" stroke="black" d="M316.35,-730.01C331,-720 349.42,-706.97 365.13,-694.45 374,-687.39 375.06,-684.24 384.13,-677.45"/>
<path fill="none" stroke="black" d="M384.13,-675.45C423.62,-645.87 376.42,-613.18 384.13,-564.45"/>
</g>
<!-- pandas_util&#45;&gt;pandas_arrays -->
<g id="edge55" class="edge">
<title>pandas_util&#45;&gt;pandas_arrays</title><style>.edge>path:hover{stroke-width:8}</style>
<path fill="none" stroke="black" d="M258.26,-737.12C222.89,-725.66 165.37,-707.02 124.02,-693.62"/>
<polygon fill="blue" stroke="black" points="125.12,-690.3 114.53,-690.54 122.96,-696.95 125.12,-690.3"/>
</g>
<!-- pandas_util&#45;&gt;pandas_core_dtypes_dtypes -->
<g id="edge56" class="edge">
<title>pandas_util&#45;&gt;pandas_core_dtypes_dtypes</title><style>.edge>path:hover{stroke-width:8}</style>
<path fill="none" stroke="black" d="M384.13,-675.45C472.18,-612 521.95,-647.3 611.13,-585.45 621.47,-578.28 618.04,-567.93 630.13,-564.45"/>
</g>
<!-- pandas_util&#45;&gt;pandas_errors -->
<g id="edge57" class="edge">
<title>pandas_util&#45;&gt;pandas_errors</title><style>.edge>path:hover{stroke-width:8}</style>
<path fill="none" stroke="black" d="M322.07,-743.33C413.1,-731.6 674.32,-697.92 783.86,-683.8"/>
<polygon fill="blue" stroke="black" points="784.24,-687.28 793.71,-682.53 783.35,-680.34 784.24,-687.28"/>
</g>
<!-- pandas_util__print_versions&#45;&gt;pandas -->
<g id="edge58" class="edge">
<title>pandas_util__print_versions&#45;&gt;pandas</title><style>.edge>path:hover{stroke-width:8}</style>
<path fill="none" stroke="black" d="M325.5,-261.64C332.24,-258.42 339.29,-255.38 346.13,-253 459.15,-213.65 501.43,-250.06 610.13,-200"/>
</g>
<!-- pandas_util__tester&#45;&gt;pandas -->
<g id="edge59" class="edge">
<title>pandas_util__tester&#45;&gt;pandas</title><style>.edge>path:hover{stroke-width:8}</style>
<path fill="none" stroke="black" d="M384.13,-476.45C374.76,-434.76 370.63,-424.77 360.13,-383.34"/>
<path fill="none" stroke="black" d="M356.07,-541.01C372.53,-525.15 389.49,-502.26 384.13,-478.45"/>
<path fill="none" stroke="black" d="M360.13,-381.34C349.63,-339.88 337.58,-321.45 360.13,-285.11"/>
</g>
</g>
</svg>
